<svg width="24" height="30" viewBox="0 0 24 30" fill="none" xmlns="http://www.w3.org/2000/svg">
<path d="M3.66683 25V28.3333C3.66683 28.8056 3.50738 29.2011 3.1885 29.52C2.8685 29.84 2.47238 30 2.00016 30C1.52794 30 1.13183 29.84 0.81183 29.52C0.492941 29.2011 0.333496 28.8056 0.333496 28.3333V18.3333C0.333496 17.4167 0.660162 16.6317 1.3135 15.9783C1.96572 15.3261 2.75016 15 3.66683 15H5.3335V11.6667H3.66683C2.75016 11.6667 1.96572 11.34 1.3135 10.6867C0.660162 10.0344 0.333496 9.25 0.333496 8.33333V3.33333C0.333496 2.41667 0.660162 1.63167 1.3135 0.978333C1.96572 0.326111 2.75016 0 3.66683 0H20.3335C21.2502 0 22.0352 0.326111 22.6885 0.978333C23.3407 1.63167 23.6668 2.41667 23.6668 3.33333V8.33333C23.6668 9.25 23.3407 10.0344 22.6885 10.6867C22.0352 11.34 21.2502 11.6667 20.3335 11.6667H18.6668V15H20.3335C21.2502 15 22.0352 15.3261 22.6885 15.9783C23.3407 16.6317 23.6668 17.4167 23.6668 18.3333V28.3333C23.6668 28.8056 23.5068 29.2011 23.1868 29.52C22.8679 29.84 22.4724 30 22.0002 30C21.5279 30 21.1324 29.84 20.8135 29.52C20.4935 29.2011 20.3335 28.8056 20.3335 28.3333V25H3.66683ZM8.66683 15H15.3335V11.6667H8.66683V15Z" fill="#219653"/>
</svg>
