<svg width="24" height="30" viewBox="0 0 24 30" fill="none" xmlns="http://www.w3.org/2000/svg">
<path d="M3.66683 24.5H3.16683V25V28.3333C3.16683 28.6799 3.05526 28.9461 2.83494 29.1664C2.61316 29.3882 2.3462 29.5 2.00016 29.5C1.65412 29.5 1.38717 29.3882 1.16538 29.1664C0.94507 28.9461 0.833496 28.6799 0.833496 28.3333V18.3333C0.833496 17.5505 1.10665 16.8923 1.66705 16.3319C2.22616 15.7728 2.8837 15.5 3.66683 15.5H5.3335H5.8335V15V11.6667V11.1667H5.3335H3.66683C2.88397 11.1667 2.22653 10.8935 1.66735 10.3334L1.66675 10.3328C1.10662 9.77363 0.833496 9.11619 0.833496 8.33333V3.33333C0.833496 2.55046 1.10665 1.89229 1.66705 1.33189C2.22616 0.772775 2.8837 0.5 3.66683 0.5H20.3335C21.1164 0.5 21.7746 0.772655 22.3348 1.33173C22.8941 1.89204 23.1668 2.55025 23.1668 3.33333V8.33333C23.1668 9.11646 22.8941 9.774 22.3349 10.3331C21.7745 10.8935 21.1164 11.1667 20.3335 11.1667H18.6668H18.1668V11.6667V15V15.5H18.6668H20.3335C21.1165 15.5 21.7747 15.7727 22.3349 16.3319C22.8941 16.8922 23.1668 17.5503 23.1668 18.3333V28.3333C23.1668 28.6794 23.0551 28.9454 22.8339 29.1658L22.8327 29.1671C22.6122 29.3883 22.3462 29.5 22.0002 29.5C21.6541 29.5 21.3881 29.3883 21.1677 29.1671L21.1664 29.1658C20.9452 28.9454 20.8335 28.6794 20.8335 28.3333V25V24.5H20.3335H3.66683ZM8.16683 15V15.5H8.66683H15.3335H15.8335V15V11.6667V11.1667H15.3335H8.66683H8.16683V11.6667V15Z" stroke="#4F4F4F"/>
</svg>
