<svg width="68" height="68" viewBox="0 0 68 68" fill="none" xmlns="http://www.w3.org/2000/svg">
<rect width="68" height="68" rx="8" fill="white"/>
<path d="M51.8389 21.4333C51.7025 21.7341 51.5803 22.003 51.459 22.2728C50.5977 24.1836 49.7384 26.0944 48.8762 28.0052C48.4953 28.8483 48.1106 29.6887 47.7259 30.53C47.689 30.6113 47.6463 30.6901 47.599 30.767C47.3242 31.2111 46.6335 31.059 46.4411 30.7661C46.3634 30.6476 46.3663 30.5211 46.4127 30.399C46.5008 30.1699 46.5965 29.9434 46.6989 29.7196C48.0471 26.8012 49.3963 23.8828 50.7465 20.9653C50.8602 20.7194 50.9739 20.4726 51.1018 20.232C51.3614 19.7445 52.1364 19.7454 52.4301 20.0515C52.5315 20.1577 52.6177 20.2842 52.6784 20.4151C53.4714 22.1189 54.2588 23.8245 55.048 25.53C55.7349 27.0153 56.4228 28.4997 57.1088 29.985C57.1742 30.1274 57.232 30.2734 57.2784 30.422C57.3438 30.6317 57.285 30.775 57.0993 30.9059C56.8369 31.0908 56.4437 31.0997 56.2144 30.9077C56.1272 30.8351 56.058 30.7334 56.0107 30.6326C55.6307 29.8169 55.2546 28.9987 54.8832 28.1795C54.1214 26.4943 53.3634 24.8073 52.6045 23.1212C52.3695 22.6001 52.1355 22.08 51.9005 21.5589C51.8872 21.5244 51.8711 21.4943 51.8389 21.4333Z" fill="#1B77DF"/>
<path d="M26.7242 21.4404C26.6854 21.5182 26.656 21.5731 26.6304 21.6306C25.6669 23.7687 24.7033 25.9078 23.7387 28.0459C23.3683 28.866 22.994 29.6842 22.6207 30.5034C22.5838 30.5848 22.5402 30.6627 22.4966 30.7414C22.2379 31.2067 21.5378 31.0731 21.3274 30.7715C21.2535 30.6653 21.2421 30.5468 21.2857 30.4353C21.3909 30.1637 21.5017 29.893 21.624 29.6276C23.0348 26.573 24.4484 23.5193 25.8611 20.4646C25.9407 20.2921 26.0288 20.1258 26.1889 20.0002C26.494 19.7622 27.2217 19.7481 27.4794 20.255C27.6272 20.5451 27.7617 20.8415 27.8982 21.1361C29.1602 23.8625 30.4213 26.5889 31.6824 29.3154C31.8188 29.6099 31.9553 29.9054 32.087 30.2026C32.1239 30.2867 32.1514 30.376 32.1703 30.4654C32.213 30.6697 32.1457 30.8139 31.9524 30.9227C31.5933 31.1253 31.1063 31.0997 30.9055 30.6582C30.5994 29.9859 30.2811 29.318 29.9769 28.6439C28.912 26.2846 27.8508 23.9235 26.7887 21.5633C26.7735 21.5297 26.7536 21.497 26.7242 21.4404Z" fill="#1B77DF"/>
<path d="M35.4364 25.4C35.4364 23.7404 35.4345 22.0809 35.4373 20.4213C35.4383 19.9418 35.9395 19.6826 36.3886 19.9197C36.5478 20.0037 36.6188 20.1417 36.6454 20.301C36.6643 20.4124 36.6691 20.5266 36.6691 20.6389C36.67 23.7033 36.67 26.7667 36.67 29.8311C36.67 30.0195 36.67 30.0195 36.8775 30.0195C38.6019 30.0195 40.3263 30.0186 42.0507 30.0204C42.1749 30.0204 42.3018 30.0275 42.4221 30.0523C42.6619 30.1018 42.7869 30.2938 42.7651 30.5556C42.7462 30.7803 42.5813 30.9422 42.3463 30.959C42.1881 30.9705 42.0289 30.9793 41.8707 30.9793C39.972 30.9811 38.0732 30.9802 36.1754 30.9793C36.0816 30.9793 35.9859 30.9714 35.894 30.9546C35.6287 30.9068 35.4525 30.706 35.4383 30.4415C35.4355 30.3813 35.4355 30.3212 35.4355 30.261C35.4355 28.6404 35.4355 27.0197 35.4355 25.3991C35.4345 25.4 35.4355 25.4 35.4364 25.4Z" fill="#1B77DF"/>
<path d="M16.3806 23.9998C16.3806 22.8073 16.3797 21.6148 16.3815 20.4224C16.3815 20.2101 16.4488 20.0181 16.6677 19.9164C16.8989 19.8084 17.1367 19.8155 17.3622 19.9394C17.5034 20.0172 17.5612 20.1499 17.5896 20.2914C17.6085 20.3843 17.6133 20.4816 17.6133 20.5763C17.6142 22.94 17.6237 25.3038 17.6095 27.6675C17.6038 28.6008 17.2997 29.4421 16.5635 30.1099C16.0433 30.5823 15.4142 30.861 14.7074 30.9893C13.9731 31.1228 13.2407 31.1158 12.5187 30.9185C12.152 30.8185 11.8166 30.6558 11.5144 30.4364C11.3343 30.3063 11.2197 30.1453 11.2585 29.918C11.3107 29.6146 11.5788 29.4509 11.8915 29.5491C12.0298 29.5924 12.1624 29.6588 12.2875 29.7296C12.8228 30.0321 13.3979 30.1551 14.0233 30.1091C14.5292 30.0719 14.9982 29.9507 15.4066 29.6614C15.9021 29.3102 16.1712 28.8264 16.284 28.2681C16.3418 27.9815 16.3721 27.6869 16.3749 27.3959C16.3853 26.2636 16.3787 25.1313 16.3787 23.9989C16.3797 23.9998 16.3797 23.9998 16.3806 23.9998Z" fill="#1B77DF"/>
<path d="M15.6539 45.9743C15.6539 46.6548 15.489 47.2463 15.1593 47.7489C14.8295 48.2514 14.3479 48.6388 13.7145 48.911C13.0863 49.1832 12.322 49.3193 11.4217 49.3193C11.0238 49.3193 10.6338 49.2931 10.2517 49.2407C9.8748 49.1884 9.51099 49.1125 9.16026 49.013C8.81477 48.9083 8.48498 48.7801 8.1709 48.6283V46.3669C8.71531 46.6077 9.28066 46.8249 9.86695 47.0186C10.4532 47.2123 11.0343 47.3091 11.6101 47.3091C12.008 47.3091 12.3273 47.2568 12.5681 47.1521C12.8141 47.0474 12.9921 46.9034 13.102 46.7202C13.2119 46.537 13.2669 46.3276 13.2669 46.0921C13.2669 45.8042 13.1701 45.5581 12.9764 45.354C12.7827 45.1498 12.5157 44.9587 12.1755 44.7808C11.8404 44.6028 11.4609 44.4117 11.0369 44.2076C10.7699 44.0819 10.4794 43.9301 10.1653 43.7521C9.85125 43.5689 9.55287 43.3464 9.27019 43.0847C8.98752 42.823 8.75457 42.5063 8.57136 42.1346C8.39337 41.7577 8.30438 41.3075 8.30438 40.784C8.30438 40.0983 8.46143 39.512 8.77551 39.0252C9.08959 38.5383 9.53716 38.1667 10.1182 37.9102C10.7045 37.6484 11.3955 37.5176 12.1912 37.5176C12.7879 37.5176 13.3559 37.5882 13.8951 37.7296C14.4395 37.8657 15.0075 38.0646 15.599 38.3263L14.8138 40.2187C14.2851 40.0041 13.8113 39.8392 13.3925 39.724C12.9738 39.6036 12.5471 39.5434 12.1126 39.5434C11.809 39.5434 11.5499 39.5931 11.3353 39.6926C11.1207 39.7868 10.9584 39.9229 10.8485 40.1009C10.7385 40.2737 10.6836 40.4752 10.6836 40.7055C10.6836 40.9777 10.7621 41.2081 10.9191 41.3965C11.0814 41.5797 11.3222 41.7577 11.6415 41.9305C11.9661 42.1032 12.3691 42.3047 12.8507 42.5351C13.437 42.8125 13.937 43.103 14.3505 43.4066C14.7693 43.705 15.0912 44.0584 15.3163 44.4667C15.5414 44.8698 15.6539 45.3723 15.6539 45.9743Z" fill="#1B77DF"/>
<path d="M21.5107 40.2187C22.3221 40.2187 23.0209 40.3757 23.6072 40.6898C24.1935 40.9987 24.6463 41.4489 24.9656 42.0404C25.2849 42.6319 25.4446 43.3543 25.4446 44.2076V45.3697H19.7832C19.8094 46.0449 20.011 46.5763 20.3879 46.9636C20.77 47.3458 21.2987 47.5368 21.974 47.5368C22.5341 47.5368 23.0471 47.4793 23.513 47.3641C23.9789 47.2489 24.4579 47.0762 24.9499 46.8459V48.699C24.5154 48.9136 24.06 49.0706 23.5837 49.1701C23.1125 49.2695 22.5393 49.3193 21.864 49.3193C20.9846 49.3193 20.2046 49.157 19.5241 48.8324C18.8488 48.5079 18.3175 48.0132 17.9301 47.3484C17.548 46.6836 17.3569 45.846 17.3569 44.8357C17.3569 43.8097 17.5297 42.9565 17.8752 42.2759C18.2259 41.5902 18.7127 41.0772 19.3357 40.7369C19.9586 40.3914 20.6836 40.2187 21.5107 40.2187ZM21.5264 41.9226C21.0605 41.9226 20.6731 42.0718 20.3643 42.3702C20.0607 42.6685 19.8853 43.1371 19.8382 43.7757H23.1989C23.1937 43.4197 23.1282 43.103 23.0026 42.8256C22.8822 42.5482 22.699 42.3283 22.453 42.166C22.2122 42.0037 21.9033 41.9226 21.5264 41.9226Z" fill="#1B77DF"/>
<path d="M31.3328 40.203C32.5106 40.203 33.4136 40.4595 34.0417 40.9725C34.6699 41.4855 34.984 42.2655 34.984 43.3124V49.1622H33.3115L32.8482 47.9687H32.7854C32.5341 48.2828 32.2776 48.5393 32.0159 48.7382C31.7542 48.9371 31.4532 49.0837 31.1129 49.1779C30.7727 49.2722 30.3591 49.3193 29.8723 49.3193C29.354 49.3193 28.8882 49.2198 28.4746 49.0209C28.0663 48.822 27.7444 48.5184 27.5088 48.11C27.2732 47.6965 27.1555 47.173 27.1555 46.5396C27.1555 45.6078 27.4826 44.9221 28.137 44.4824C28.7913 44.0374 29.7728 43.7914 31.0815 43.7443L32.6048 43.6972V43.3124C32.6048 42.8518 32.4844 42.5141 32.2436 42.2995C32.0028 42.0849 31.6678 41.9776 31.2385 41.9776C30.8145 41.9776 30.3984 42.0378 29.9901 42.1582C29.5818 42.2786 29.1734 42.4304 28.7651 42.6136L27.9721 40.9961C28.438 40.75 28.9588 40.5563 29.5346 40.415C30.1157 40.2737 30.7151 40.203 31.3328 40.203ZM32.6048 45.0948L31.6783 45.1263C30.9035 45.1472 30.3643 45.2859 30.0607 45.5424C29.7624 45.7989 29.6132 46.1366 29.6132 46.5553C29.6132 46.9218 29.7205 47.1835 29.9351 47.3405C30.1497 47.4924 30.4298 47.5683 30.7753 47.5683C31.2883 47.5683 31.7201 47.4164 32.0709 47.1128C32.4268 46.8092 32.6048 46.3774 32.6048 45.8172V45.0948Z" fill="#1B77DF"/>
<path d="M41.5003 47.4112C41.7621 47.4112 42.0159 47.385 42.262 47.3327C42.5132 47.2803 42.7619 47.2149 43.0079 47.1364V48.9188C42.7514 49.034 42.4321 49.1282 42.05 49.2015C41.6731 49.28 41.2595 49.3193 40.8093 49.3193C40.2859 49.3193 39.8147 49.2355 39.396 49.068C38.9824 48.8953 38.6553 48.5995 38.4145 48.1807C38.1789 47.7567 38.0611 47.1678 38.0611 46.414V42.1817H36.9147V41.1688L38.2339 40.3679L38.9248 38.5148H40.456V40.3836H42.9137V42.1817H40.456V46.414C40.456 46.749 40.5502 47.0003 40.7387 47.1678C40.9324 47.3301 41.1862 47.4112 41.5003 47.4112Z" fill="#1B77DF"/>
<path d="M48.7548 40.2187C49.5661 40.2187 50.265 40.3757 50.8513 40.6898C51.4376 40.9987 51.8904 41.4489 52.2097 42.0404C52.529 42.6319 52.6887 43.3543 52.6887 44.2076V45.3697H47.0273C47.0535 46.0449 47.255 46.5763 47.6319 46.9636C48.014 47.3458 48.5428 47.5368 49.218 47.5368C49.7782 47.5368 50.2912 47.4793 50.757 47.3641C51.2229 47.2489 51.7019 47.0762 52.194 46.8459V48.699C51.7595 48.9136 51.3041 49.0706 50.8277 49.1701C50.3566 49.2695 49.7834 49.3193 49.1081 49.3193C48.2287 49.3193 47.4487 49.157 46.7682 48.8324C46.0929 48.5079 45.5616 48.0132 45.1742 47.3484C44.7921 46.6836 44.601 45.846 44.601 44.8357C44.601 43.8097 44.7738 42.9565 45.1192 42.2759C45.47 41.5902 45.9568 41.0772 46.5797 40.7369C47.2027 40.3914 47.9277 40.2187 48.7548 40.2187ZM48.7705 41.9226C48.3046 41.9226 47.9172 42.0718 47.6084 42.3702C47.3047 42.6685 47.1294 43.1371 47.0823 43.7757H50.443C50.4377 43.4197 50.3723 43.103 50.2467 42.8256C50.1263 42.5482 49.943 42.3283 49.697 42.166C49.4562 42.0037 49.1474 41.9226 48.7705 41.9226Z" fill="#1B77DF"/>
<path d="M59.8803 40.2187C60.0007 40.2187 60.1394 40.2265 60.2964 40.2423C60.4587 40.2527 60.5896 40.2684 60.689 40.2894L60.5084 42.5351C60.4299 42.5089 60.3174 42.4906 60.1708 42.4801C60.0295 42.4644 59.9065 42.4565 59.8018 42.4565C59.4929 42.4565 59.1919 42.4958 58.8988 42.5743C58.6109 42.6528 58.3517 42.7811 58.1214 42.9591C57.8911 43.1318 57.7079 43.3622 57.5718 43.6501C57.4409 43.9327 57.3755 44.2808 57.3755 44.6944V49.1622H54.9806V40.3836H56.7944L57.1478 41.8598H57.2655C57.4383 41.5614 57.6529 41.2892 57.9094 41.0432C58.1711 40.7919 58.4669 40.593 58.7967 40.4464C59.1317 40.2946 59.4929 40.2187 59.8803 40.2187Z" fill="#1B77DF"/>
</svg>
