<svg width="139" height="144" viewBox="0 0 139 144" fill="none" xmlns="http://www.w3.org/2000/svg">
<g clip-path="url(#clip0_214_2459)">
<path d="M130.442 66.5731C130.545 67.2395 130.75 67.8857 131.051 68.488C131.456 69.1715 132.357 68.6676 132.174 67.8526L128.811 51.2017C128.741 50.6678 128.562 50.1543 128.284 49.6943C128.226 49.5914 128.149 49.5014 128.055 49.4297C127.962 49.3579 127.855 49.306 127.741 49.2769C127.627 49.2478 127.509 49.2423 127.393 49.2605C127.277 49.2788 127.166 49.3205 127.066 49.3832C126.492 49.8696 127.358 51.7669 127.501 52.3979C127.832 53.9841 128.161 55.5718 128.489 57.1609L130.442 66.5731Z" fill="#F2F6FF"/>
<path d="M132.008 70.7446C131.998 71.2961 132.102 71.8437 132.313 72.3527L133.218 74.5436C133.288 74.765 133.406 74.9683 133.562 75.1393C133.718 75.3104 133.91 75.445 134.123 75.5339C134.449 75.626 134.353 75.236 134.345 75.1834C134.088 73.7902 133.762 72.411 133.366 71.0513C133.066 69.7981 132.039 69.0269 132.008 70.7446Z" fill="#F2F6FF"/>
<path d="M8.59682 17.8165C8.59658 18.1743 8.65539 18.5297 8.77085 18.8681H9.09715H14.7008L14.7661 18.9251C14.7679 18.9062 14.7679 18.8871 14.7661 18.8681V18.8681H20.9354H45.2557C45.7604 18.8681 46.5609 18.8419 46.6305 18.8331C46.9784 18.5479 47.2561 18.1856 47.4418 17.7743C47.6275 17.363 47.7161 16.914 47.7008 16.4625C47.6674 15.8297 47.3943 15.2339 46.9378 14.7978C46.4813 14.3617 45.8762 14.1185 45.247 14.1182C44.9908 14.1173 44.7362 14.1603 44.4943 14.2453C44.6134 13.5871 44.5286 12.9079 44.2513 12.2998C43.974 11.6918 43.5176 11.1845 42.9442 10.8467C42.3707 10.5089 41.708 10.3569 41.0459 10.4115C40.3837 10.4661 39.7543 10.7245 39.243 11.1517C38.7455 10.2304 37.979 9.48515 37.0471 9.01698C36.1152 8.54882 35.0631 8.38031 34.033 8.53426C33.0029 8.6882 32.0446 9.15717 31.2879 9.8777C30.5311 10.5982 30.0125 11.5355 29.8021 12.5627C29.7461 12.8091 29.7097 13.0597 29.6933 13.312V13.312L29.5845 13.2419C29.0757 12.9179 28.4854 12.7476 27.8834 12.7511C27.1821 12.7527 26.5002 12.9833 25.9401 13.4084C25.38 13.8335 24.9719 14.43 24.777 15.1085C24.3611 14.7617 23.8377 14.5726 23.2978 14.574H23.2412C22.9686 14.5821 22.6994 14.6369 22.4451 14.7361C22.3073 13.7485 21.8661 12.8292 21.1834 12.107C20.5693 11.4567 19.7824 10.9983 18.9165 10.7866C18.0506 10.575 17.1426 10.619 16.3009 10.9134C15.4592 11.2078 14.7195 11.7402 14.1704 12.4469C13.6212 13.1536 13.2858 14.0046 13.2042 14.8982C12.7639 14.6762 12.2783 14.5607 11.7859 14.5608C11.3639 14.5625 10.9464 14.6482 10.5574 14.813C10.1684 14.9777 9.81563 15.2183 9.51927 15.5209C9.22291 15.8234 8.98884 16.182 8.83054 16.576C8.67223 16.9699 8.59281 17.3915 8.59682 17.8165V17.8165Z" fill="#F2F6FF"/>
<path d="M89.0715 9.15799C89.071 9.50826 89.0137 9.85609 88.9018 10.1877H88.5798H83.0675L83.0023 10.2447C83.0023 10.2228 83.0023 10.2052 83.0023 10.1877H76.9113H63.7244C63.6026 10.1877 62.9413 10.1877 62.8977 10.1877H55.1144H53.4002C53.3654 10.1877 53.2088 10.1877 52.9956 10.1877C52.504 10.1877 51.7295 10.1614 51.6469 10.157C51.3044 9.87688 51.0311 9.52057 50.8484 9.1161C50.6658 8.71162 50.5787 8.27 50.594 7.82592C50.6299 7.19518 50.9077 6.60317 51.3688 6.17479C51.8298 5.74641 52.4381 5.51516 53.0652 5.52984C53.3171 5.5296 53.5672 5.57257 53.8048 5.65691C53.7244 5.19478 53.7451 4.72055 53.8655 4.2673C53.9858 3.81406 54.2029 3.39271 54.5015 3.03266C54.8002 2.67261 55.1733 2.38253 55.5947 2.18265C56.0162 1.98277 56.4758 1.87792 56.9417 1.87539C57.6829 1.87428 58.4008 2.1365 58.9691 2.61592C59.4614 1.71696 60.2148 0.991062 61.1283 0.535531C62.0417 0.0799996 63.0717 -0.083389 64.08 0.067269C65.0883 0.217927 66.0267 0.675431 66.7696 1.37845C67.5124 2.08146 68.0241 2.99639 68.236 4.00058C68.2888 4.24452 68.3237 4.49203 68.3405 4.74111V4.74111L68.4449 4.671C68.9471 4.35494 69.5277 4.18788 70.1199 4.189C70.8086 4.19239 71.4776 4.42055 72.0267 4.83925C72.5758 5.25796 72.9753 5.84466 73.1654 6.51137C73.5752 6.1693 74.0906 5.98181 74.6228 5.98117H74.6794C74.9477 5.98609 75.213 6.03952 75.4625 6.13891C75.5941 5.16423 76.028 4.25633 76.7025 3.54487C77.3081 2.90907 78.0825 2.46215 78.9334 2.25744C79.7842 2.05272 80.6756 2.09885 81.5011 2.39032C82.3267 2.68179 83.0515 3.2063 83.5892 3.90127C84.127 4.59624 84.4548 5.43233 84.5337 6.3098C85.0143 6.06774 85.5486 5.95425 86.0853 5.98023C86.622 6.00621 87.143 6.1708 87.5983 6.45816C88.0536 6.74553 88.4278 7.14602 88.6851 7.62114C88.9423 8.09625 89.0739 8.63002 89.0671 9.17114L89.0715 9.15799Z" fill="#F2F6FF"/>
<path d="M120.209 126.731C119.067 127.634 117.886 128.51 116.668 129.36C113.574 131.515 110.338 133.456 106.983 135.171C106.927 135.206 106.866 135.232 106.809 135.263H106.783C105.582 135.876 104.367 136.46 103.137 137.015C101.027 137.966 98.878 138.834 96.707 139.609C95.1408 140.17 93.5644 140.681 91.9778 141.143C89.8025 141.774 87.6272 142.304 85.4736 142.734C83.32 143.163 81.2403 143.47 79.152 143.68C78.06 143.79 76.9767 143.873 75.8934 143.921C75 143.965 74.1139 143.987 73.2351 143.987H72.7391C66.9287 143.947 61.1526 143.086 55.58 141.428C54.1095 140.99 52.6593 140.499 51.2293 139.956C44.2844 137.304 37.8683 133.419 32.2865 128.484C31.0973 127.438 29.9516 126.347 28.8494 125.211C20.5015 116.652 14.781 105.85 12.3734 94.0997V94.0472L12.3212 93.793C11.5154 89.7257 11.1102 85.5882 11.1117 81.4406C11.1001 78.4525 11.3784 75.4704 11.9427 72.5368C15.6973 53.4145 32.082 42.7623 57.9859 44.55H58.2513H58.4558C59.2153 44.5915 59.9761 44.5011 60.7051 44.2827C60.93 44.2155 61.1509 44.135 61.3664 44.0418C71.212 39.8746 70.8466 11.9536 98.9955 18.8419C124.569 25.121 123.194 37.4471 126.448 55.5484C126.585 56.2875 126.73 57.0397 126.883 57.8051C126.962 58.2082 127.044 58.6157 127.131 59.0232C127.131 59.0933 127.162 59.1634 127.175 59.2379C128.758 67.008 131.52 74.4863 135.363 81.41C144.391 97.6841 135.606 114.594 120.209 126.731Z" fill="#F2F6FF"/>
<path d="M66.905 32.3204C66.9863 32.2887 67.0739 32.2765 67.1608 32.2849C67.2476 32.2933 67.3313 32.3219 67.4053 32.3686C67.7316 32.6008 67.6315 33.1091 67.4923 33.4903C66.7266 35.5629 65.8869 37.6399 64.6121 39.4408C63.3374 41.2418 61.5667 42.7754 59.474 43.3845C59.2728 43.4605 59.0555 43.4832 58.8431 43.4502C58.7376 43.4322 58.6411 43.3793 58.5687 43.3C58.4962 43.2207 58.452 43.1194 58.4429 43.012C58.4429 42.6045 59.5436 42.6308 59.8394 42.5388C60.4275 42.3457 60.9823 42.0619 61.484 41.6975C62.4565 40.9801 63.2737 40.0706 63.8856 39.0246C64.9645 37.2368 65.5519 35.1949 66.2349 33.2187C66.3091 32.9437 66.4462 32.6901 66.6352 32.4781C66.7138 32.408 66.8055 32.3543 66.905 32.3204Z" fill="#F2F6FF"/>
<path d="M102.476 104.033L102.446 104.073L102.485 104.156C102.79 104.848 104.834 109.572 104.834 111.837C104.834 114.778 100.218 119.988 100.218 119.988C100.218 119.988 102.107 123.554 102.428 126.915C102.428 127.007 102.428 127.104 102.428 127.196C102.471 127.746 102.456 128.3 102.385 128.848C101.737 133.414 96.9596 137.611 96.9596 137.611C97.07 138.315 97.1369 139.025 97.1598 139.736C95.5935 140.297 94.0157 140.809 92.4262 141.27C90.2509 141.897 88.0755 142.431 85.922 142.856C83.7684 143.281 81.7148 143.628 79.6178 143.855C78.5258 143.965 77.4425 144.048 76.3635 144.096C75.4702 144.14 74.5826 144.162 73.7009 144.162H73.2136C67.4031 144.123 61.627 143.261 56.0545 141.603C54.584 141.165 53.1338 140.674 51.7038 140.131C51.3521 139.597 51.0986 139.003 50.9555 138.378C50.664 136.928 52.5305 132.506 52.5305 132.506C51.7333 131.273 51.0321 129.98 50.4334 128.637C49.9596 127.587 49.5951 126.49 49.3458 125.364C49.1604 124.566 49.1192 123.741 49.2239 122.928C49.6986 120.269 50.7783 117.757 52.3782 115.588C52.3782 115.588 48.9803 110.453 49.4632 107.924C49.9897 105.199 53.1091 100.992 53.1091 100.992C53.1091 100.992 50.9033 97.3555 51.2035 94.1042C51.3166 92.8685 52.7393 90.7126 54.249 88.8065C55.2424 87.4995 56.3363 86.2732 57.5207 85.1389L58.4561 85.2178L60.3051 85.3712L61.1753 85.4413L61.78 85.4895L62.8938 85.5771L63.2636 85.6034C65.8015 85.8108 68.3336 86.0095 70.8599 86.1993C77.1394 86.6755 83.416 87.1137 89.6897 87.5139C93.2833 87.768 96.8871 87.9988 100.501 88.2062L100.784 88.5436C101.136 88.9818 101.706 89.7136 102.328 90.5943C103.49 92.2419 104.834 94.424 105.256 96.2206C105.357 96.6228 105.401 97.0373 105.387 97.4519C105.265 99.5245 104.143 101.597 103.325 102.855C102.903 103.49 102.576 103.911 102.476 104.033Z" fill="#489AE8"/>
<path d="M99.2478 92.2375C85.5257 87.8907 70.6768 89.6697 57.0461 84.9943C57.2767 84.8804 60.6224 81.7605 60.6224 81.7605C60.6224 81.7605 54.6272 73.8031 55.6496 68.6895C57.3072 60.4035 61.362 59.1152 66.8961 52.5162C71.8907 46.5657 71.9168 42.5913 85.0471 24.4725C85.0471 24.4725 82.6108 33.9679 82.6586 36.058L82.5194 41.6887L83.8594 34.4806L88.6234 22.4963L91.943 36.2421L102.511 25.9886L100.409 38.8843L97.1899 45.9259L100.836 41.5441L105.983 29.9848C105.983 29.9848 105.052 48.0949 105.204 58.1644C105.352 68.1549 107.793 68.5668 108.154 75.1439C108.536 82.1242 108.206 87.0932 99.1869 92.1104L99.2478 92.2375Z" fill="#489AE8"/>
<path d="M99.9571 43.8183C99.9571 43.8183 99.3828 49.0765 101.41 60.1231C102.28 64.908 102.106 63.2868 104.73 73.0582C106.318 78.9693 104.686 85.2047 100.336 88.3946C99.1261 89.271 98.3778 89.5383 95.4672 89.4244C91.9301 89.2929 84.3642 84.6876 80.4747 83.9252C76.5852 83.1627 71.1686 83.2635 67.1529 82.2601C64.2075 81.5239 61.6972 78.7941 60.6748 75.4858C59.6697 72.252 58.1818 70.7227 60.1309 65.2454C61.075 62.6163 66.509 57.9453 69.8068 53.5723C75.3844 46.1757 76.9115 43.1829 79.6089 37.7977L80.3311 46.5L81.5058 50.2596L81.2926 46.1845L86.7963 35.4622L89.5415 42.6264L97.4859 38.1482L95.1713 49.2912L92.8611 53.0946L95.7848 50.3954L99.9571 43.8183Z" fill="#72B7F6"/>
<path d="M69.4717 59.181C69.4717 59.181 62.2669 50.15 60.6224 41.0227C58.8299 31.054 59.9654 24.2228 62.0494 17.9655C62.9195 15.3364 61.9015 14.9508 61.0183 17.4309C60.1351 19.911 55.0926 31.891 58.4079 44.4449C61.0966 54.6107 64.364 59.2423 66.9135 62.5769L69.4717 59.181Z" fill="#72B7F6"/>
<path d="M101.019 71.4545C101.019 71.4545 113.562 68.2163 120.792 61.5384C128.693 54.2426 132.104 47.7137 134.336 41.0533C135.28 38.2314 136.39 38.5908 135.554 41.268C134.719 43.9453 131.334 57.3713 120.475 65.8764C111.691 72.7559 105.957 74.5612 101.662 75.7355L101.019 71.4545Z" fill="#72B7F6"/>
<path d="M93.4133 89.7399C94.5314 89.5471 97.8771 90.4234 100.187 91.532C101.493 92.8159 103.463 94.8841 103.389 95.6334C102.985 99.6253 99.0953 103.363 96.8329 104.191C94.6968 104.975 82.4148 101.014 79.5694 101.067C76.7241 101.119 67.7356 103.359 64.0636 102.785C60.3916 102.211 53.722 96.7946 54.0048 94.3934C54.2862 92.5597 55.068 90.8409 56.2628 89.4287C56.6979 88.9467 60.4177 84.2757 61.0486 84.0961C62.7019 83.6951 64.3995 83.5096 66.0997 83.5439C68.1315 83.5045 75.0839 90.7871 78.9864 90.7126C82.889 90.6381 86.4653 90.2744 88.249 89.8625C89.1583 89.6435 91.2858 90.1167 93.4133 89.7399Z" fill="#72B7F6"/>
<path d="M96.8725 104.235C96.8725 104.235 101.284 108.875 101.284 110.47C101.284 112.262 97.7208 117.236 95.2932 117.481C92.0954 117.805 80.3616 115.229 78.0514 114.997C75.7412 114.764 63.4026 116.403 61.5188 115.934C58.6038 115.198 51.7298 109.936 52.2083 107.534C52.613 105.497 59.0781 102.237 61.5188 102.237C65.0385 102.237 75.8456 105.225 79.2435 105.212C82.6414 105.199 88.2494 103.652 96.8725 104.235Z" fill="#72B7F6"/>
<path d="M94.7406 117.744C96.0066 117.797 96.8898 119.624 97.4075 120.785C98.2777 122.766 99.4872 125.719 99.2609 126.858C98.8563 128.896 94.5665 133.054 92.7828 133.216C87.2226 133.725 80.5225 130.434 77.7294 129.956C74.9363 129.479 63.4548 131.096 60.0526 130.863C56.6503 130.631 50.4376 124.05 50.6725 122.582C50.9074 121.114 56.4807 116.447 60.244 116.311C64.0073 116.175 72.6957 118.629 76.9985 118.866C81.4536 119.111 85.7564 117.258 89.2239 117.319C90.8772 117.35 93.1265 117.683 94.7406 117.744Z" fill="#72B7F6"/>
<path d="M91.9778 141.156C89.8025 141.787 87.6271 142.317 85.4735 142.747C81.5579 142.453 76.2066 141.997 75.7541 142.116C74.7925 142.811 73.7852 143.439 72.7391 143.996C66.9286 143.956 61.1525 143.094 55.58 141.437C54.662 139.763 54.0224 138.168 53.9485 137.55C53.8092 136.389 56.3065 133.146 57.429 131.731C57.6082 131.51 57.8311 131.329 58.0835 131.199C58.3359 131.069 58.6123 130.994 58.8952 130.977C65.3037 130.583 70.9683 132.572 71.8907 132.686C72.7043 132.787 79.9525 131.84 83.1372 131.626C83.5625 131.588 83.9897 131.578 84.4163 131.595C86.2508 131.854 88.0377 132.382 89.7198 133.164C92.0692 134.202 94.1357 135.552 94.3315 136.586C94.5273 137.62 93.3396 139.653 91.9778 141.156Z" fill="#72B7F6"/>
<path d="M79.1522 143.921C78.0602 144.031 76.9769 144.114 75.8936 144.162C76.201 143.947 76.4603 143.669 76.6549 143.347C76.6549 143.347 77.6512 143.614 79.1522 143.921Z" fill="#72B7F6"/>
<path d="M135.702 39.156C135.702 39.156 134.545 43.3407 133.24 46.5701C131.935 49.7995 128.732 56.3854 124.338 60.7102C119.291 65.6748 110.359 70.3502 104.651 72.4447C104.882 73.6147 104.686 72.7471 105.121 74.8197C109.376 73.1897 117.003 69.636 123.664 63.1684C133.527 53.5985 136.568 39.7169 135.702 39.156Z" fill="#489AE8"/>
<path d="M97.0292 64.6627C99.8982 64.6627 102.224 62.3203 102.224 59.4308C102.224 56.5413 99.8982 54.1989 97.0292 54.1989C94.1602 54.1989 91.8345 56.5413 91.8345 59.4308C91.8345 62.3203 94.1602 64.6627 97.0292 64.6627Z" fill="#3181C2"/>
<path d="M99.4696 60.2764C100.282 60.2764 100.94 59.6134 100.94 58.7954C100.94 57.9774 100.282 57.3143 99.4696 57.3143C98.6574 57.3143 97.999 57.9774 97.999 58.7954C97.999 59.6134 98.6574 60.2764 99.4696 60.2764Z" fill="white"/>
<path d="M77.1986 58.1337C80.0676 58.1337 82.3933 55.7913 82.3933 52.9018C82.3933 50.0123 80.0676 47.6699 77.1986 47.6699C74.3297 47.6699 72.0039 50.0123 72.0039 52.9018C72.0039 55.7913 74.3297 58.1337 77.1986 58.1337Z" fill="#3181C2"/>
<path d="M79.6351 53.7475C80.4472 53.7475 81.1056 53.0844 81.1056 52.2665C81.1056 51.4485 80.4472 50.7854 79.6351 50.7854C78.8229 50.7854 78.1646 51.4485 78.1646 52.2665C78.1646 53.0844 78.8229 53.7475 79.6351 53.7475Z" fill="white"/>
<path d="M93.6613 49.703C93.8893 49.8301 94.1559 49.8676 94.4096 49.8082C101.758 48.1212 105.326 54.4573 105.36 54.5187C105.502 54.7564 105.73 54.9295 105.996 55.0017C106.262 55.0738 106.546 55.0394 106.787 54.9057C107.029 54.7719 107.209 54.5492 107.291 54.2843C107.373 54.0193 107.35 53.7327 107.227 53.4846C106.379 52.0667 105.272 50.8236 103.964 49.8214C102.56 48.7279 100.928 47.9704 99.1902 47.606C97.4528 47.2416 95.6559 47.2799 93.9354 47.7181C93.7256 47.7673 93.5354 47.8795 93.3901 48.0397C93.2448 48.2 93.1512 48.4008 93.1215 48.6158C93.0918 48.8307 93.1275 49.0497 93.2239 49.2438C93.3202 49.4379 93.4728 49.598 93.6613 49.703V49.703Z" fill="#3181C2"/>
<path d="M73.8135 42.3986C74.0458 42.5182 74.3136 42.5478 74.5661 42.4818C81.8579 40.567 85.6212 46.7936 85.656 46.8637C85.7245 46.9907 85.8176 47.1024 85.93 47.1923C86.0423 47.2821 86.1715 47.3482 86.3098 47.3866C86.4481 47.425 86.5926 47.4349 86.7348 47.4156C86.877 47.3964 87.0138 47.3485 87.1372 47.2747C87.2605 47.2009 87.3678 47.1029 87.4526 46.9863C87.5374 46.8698 87.598 46.7372 87.6307 46.5966C87.6634 46.4559 87.6676 46.31 87.6431 46.1677C87.6185 46.0254 87.5656 45.8895 87.4877 45.7682C86.5945 44.3803 85.4508 43.1735 84.1159 42.2102C82.6802 41.1601 81.0262 40.4527 79.279 40.1414C77.5318 39.8302 75.7372 39.9232 74.031 40.4136C73.8948 40.4488 73.767 40.5108 73.6548 40.5961C73.5426 40.6814 73.4483 40.7883 73.3775 40.9106C73.3067 41.0329 73.2607 41.1681 73.2422 41.3085C73.2236 41.4488 73.233 41.5915 73.2696 41.7282C73.3081 41.8723 73.3765 42.0065 73.4702 42.1221C73.564 42.2376 73.6809 42.3319 73.8135 42.3986V42.3986Z" fill="#3181C2"/>
<path d="M90.4944 72.3834C89.4416 75.0125 85.4955 78.9824 79.274 77.0676C74.1968 75.5033 74.7972 70.7665 75.85 68.1549C76.9029 65.5434 78.3386 69.9077 82.9764 70.8848C88.0754 71.9715 91.5647 69.7718 90.4944 72.3834Z" fill="#3181C2"/>
<path d="M87.7448 75.8056C85.787 77.2691 82.9286 78.1718 79.287 77.05C77.3249 76.4453 76.2111 75.3718 75.6455 74.1274C75.6455 74.1274 81.9583 69.9778 87.7448 75.8056Z" fill="#FF5159"/>
<path d="M112.683 138.935C111.46 138.623 109.38 137.475 107.379 135.771C107.183 135.609 106.992 135.438 106.8 135.263C105.314 133.945 104.071 132.372 103.128 130.618C102.634 129.677 102.293 128.662 102.119 127.612C101.891 126.015 102.03 124.388 102.524 122.853V122.818C102.877 121.692 103.35 120.608 103.933 119.584C103.933 119.554 103.964 119.527 103.977 119.501C105.078 117.629 106.356 115.869 107.792 114.243V114.243L108.01 113.989C109.976 111.653 110.29 111.36 110.438 110.624C110.529 110.185 105.652 106.557 101.976 103.893L99.6914 102.25C98.6429 101.501 97.9512 101.019 97.9512 101.019L101.632 93.0525C101.632 93.0525 102.902 94.2794 104.734 96.1198C109.489 100.865 118.03 109.703 118.117 111.872C118.238 114.896 108.832 121.42 108.737 121.902C108.641 122.384 110.725 123.068 110.886 124.093C111.047 125.119 109.685 125.719 110.203 126.201C110.73 126.442 111.281 126.625 111.847 126.749C113.235 127.187 115.202 127.884 116.633 129.378C117.351 130.116 117.883 131.018 118.182 132.007C119.709 136.783 115.402 139.627 112.683 138.935Z" fill="#72B7F6"/>
<path d="M106.983 135.171C107.257 135.482 107.549 135.797 107.853 136.113C107.827 136.113 107.658 135.981 107.388 135.771C107.223 135.644 107.014 135.477 106.783 135.276C105.292 134.005 104.054 132.46 103.137 130.723C102.663 129.807 102.312 128.832 102.093 127.822C102.04 127.578 102.002 127.331 101.98 127.082C101.98 126.994 101.98 126.906 101.98 126.819V126.793C101.931 125.462 102.127 124.134 102.559 122.875V122.84C102.932 121.722 103.404 120.64 103.968 119.606C103.968 119.576 103.999 119.549 104.012 119.523C104.828 118.008 105.796 116.581 106.901 115.264C107.088 115.058 107.431 114.699 107.827 114.265C108.959 113.034 110.555 111.198 110.473 110.646C110.416 110.247 107.553 108.143 104.764 106.049C103.768 105.3 102.824 104.612 102.019 104.038C101.237 103.445 100.415 102.907 99.561 102.425V102.425L99.5871 102.403C99.6013 102.391 99.6144 102.378 99.6263 102.364L99.6785 102.316L99.7046 102.289C100.049 101.948 100.32 101.539 100.501 101.089L100.697 101.225C101.045 101.466 101.832 102.013 102.833 102.728C106.074 105.037 111.534 109.086 111.604 110.107C111.678 111.561 108.415 114.751 107.688 115.803C106.962 116.855 105.252 118.87 104.351 121.162C103.568 123.156 103.046 124.133 102.798 126.893C102.76 127.638 102.869 128.383 103.12 129.084C103.694 130.78 104.952 132.892 106.983 135.171Z" fill="#489AE8"/>
<path d="M53.4744 24.5601H13.1001C9.11139 24.5601 5.87793 27.8167 5.87793 31.834V121.219C5.87793 125.236 9.11139 128.493 13.1001 128.493H53.4744C57.4631 128.493 60.6965 125.236 60.6965 121.219V31.834C60.6965 27.8167 57.4631 24.5601 53.4744 24.5601Z" fill="#3181C2"/>
<path d="M57.9815 32.5219V119.834C57.9826 121.256 57.4251 122.621 56.4305 123.63C55.436 124.639 54.0853 125.21 52.6736 125.219H13.9221C12.5104 125.21 11.1598 124.639 10.1652 123.63C9.17068 122.621 8.61308 121.256 8.61426 119.834V32.5219C8.61308 31.1001 9.17068 29.7356 10.1652 28.7266C11.1598 27.7175 12.5104 27.1459 13.9221 27.1367H52.691C54.0997 27.1505 55.4459 27.7241 56.4367 28.7327C57.4275 29.7413 57.9827 31.1031 57.9815 32.5219V32.5219Z" fill="#F2F6FF"/>
<path d="M41.3926 25.1692H25.1906C23.8643 25.1692 22.7891 26.2521 22.7891 27.588V27.9648C22.7891 29.3006 23.8643 30.3836 25.1906 30.3836H41.3926C42.7189 30.3836 43.7942 29.3006 43.7942 27.9648V27.588C43.7942 26.2521 42.7189 25.1692 41.3926 25.1692Z" fill="#3181C2"/>
<path d="M15.2005 29.4593C15.2452 29.4597 15.29 29.4682 15.3347 29.4849C15.3794 29.5016 15.4203 29.5293 15.4572 29.568C15.4941 29.6063 15.5238 29.6587 15.5462 29.7251C15.5685 29.7915 15.5797 29.8748 15.5797 29.9749C15.5797 30.0719 15.5705 30.158 15.552 30.2333C15.5339 30.3082 15.5076 30.3714 15.4732 30.4229C15.4391 30.4744 15.3975 30.5135 15.3485 30.5401C15.2999 30.5667 15.2449 30.58 15.1834 30.58C15.1223 30.58 15.0678 30.568 15.0199 30.5438C14.9723 30.5193 14.9332 30.4854 14.9027 30.4421C14.8725 30.3984 14.8532 30.3478 14.8446 30.2903H14.9746C14.9863 30.3403 15.0096 30.3817 15.0444 30.4144C15.0795 30.4467 15.1259 30.4629 15.1834 30.4629C15.2676 30.4629 15.334 30.4261 15.3826 30.3526C15.4316 30.2791 15.4561 30.1752 15.4561 30.041H15.4476C15.4277 30.0708 15.4041 30.0966 15.3768 30.1182C15.3494 30.1399 15.3191 30.1566 15.2857 30.1683C15.2523 30.18 15.2168 30.1859 15.1792 30.1859C15.1167 30.1859 15.0593 30.1704 15.0071 30.1395C14.9553 30.1083 14.9137 30.0655 14.8825 30.0111C14.8516 29.9565 14.8361 29.894 14.8361 29.8236C14.8361 29.7569 14.851 29.6958 14.8809 29.6404C14.911 29.5847 14.9533 29.5403 15.0076 29.5072C15.0623 29.4742 15.1266 29.4582 15.2005 29.4593ZM15.2005 29.5765C15.1557 29.5765 15.1154 29.5877 15.0795 29.61C15.044 29.6321 15.0158 29.6619 14.9949 29.6995C14.9743 29.7368 14.964 29.7782 14.964 29.8236C14.964 29.8691 14.9739 29.9105 14.9938 29.9478C15.014 29.9847 15.0415 30.0142 15.0763 30.0362C15.1115 30.0578 15.1515 30.0687 15.1962 30.0687C15.2299 30.0687 15.2614 30.0621 15.2905 30.049C15.3196 30.0355 15.345 30.0172 15.3667 29.9941C15.3887 29.9707 15.4059 29.9442 15.4183 29.9147C15.4308 29.8849 15.437 29.8538 15.437 29.8215C15.437 29.7789 15.4267 29.739 15.4061 29.7017C15.3858 29.6644 15.3578 29.6342 15.3219 29.6111C15.2864 29.588 15.2459 29.5765 15.2005 29.5765ZM15.8449 30.5736C15.8186 30.5736 15.796 30.5642 15.7772 30.5454C15.7584 30.5266 15.749 30.504 15.749 30.4778C15.749 30.4515 15.7584 30.4289 15.7772 30.4101C15.796 30.3913 15.8186 30.3819 15.8449 30.3819C15.8711 30.3819 15.8937 30.3913 15.9125 30.4101C15.9313 30.4289 15.9407 30.4515 15.9407 30.4778C15.9407 30.4952 15.9363 30.5111 15.9274 30.5257C15.9189 30.5403 15.9074 30.552 15.8928 30.5609C15.8786 30.5694 15.8626 30.5736 15.8449 30.5736ZM16.1386 30.3414V30.2327L16.618 29.4742H16.6969V29.6425H16.6436L16.2814 30.2157V30.2242H16.927V30.3414H16.1386ZM16.6521 30.5651V30.3084V30.2578V29.4742H16.7778V30.5651H16.6521ZM17.4675 30.58C17.405 30.58 17.3487 30.5676 17.2987 30.5428C17.2486 30.5179 17.2085 30.4838 17.1783 30.4405C17.1481 30.3972 17.1316 30.3478 17.1287 30.2924H17.2566C17.2615 30.3418 17.2839 30.3826 17.3237 30.4149C17.3638 30.4469 17.4118 30.4629 17.4675 30.4629C17.5123 30.4629 17.552 30.4524 17.5868 30.4314C17.622 30.4105 17.6495 30.3817 17.6694 30.3451C17.6896 30.3082 17.6998 30.2665 17.6998 30.22C17.6998 30.1724 17.6893 30.1299 17.6683 30.0926C17.6477 30.055 17.6193 30.0254 17.5831 30.0037C17.5469 29.982 17.5055 29.971 17.459 29.9707C17.4256 29.9703 17.3913 29.9755 17.3562 29.9861C17.321 29.9964 17.2921 30.0097 17.2694 30.0261L17.1458 30.0111L17.2118 29.4742H17.7786V29.5914H17.3226L17.2843 29.9131H17.2907C17.313 29.8954 17.3411 29.8806 17.3748 29.8689C17.4086 29.8572 17.4437 29.8513 17.4803 29.8513C17.5471 29.8513 17.6065 29.8673 17.6587 29.8993C17.7113 29.9309 17.7525 29.9742 17.7823 30.0293C17.8125 30.0843 17.8276 30.1472 17.8276 30.2178C17.8276 30.2874 17.812 30.3496 17.7807 30.4043C17.7498 30.4586 17.7072 30.5016 17.6529 30.5332C17.5985 30.5644 17.5368 30.58 17.4675 30.58Z" fill="#3181C2"/>
<path d="M46.5738 29.7526H46.1127C46.079 29.7526 46.0518 29.7801 46.0518 29.814V30.7648C46.0518 30.7987 46.079 30.8262 46.1127 30.8262H46.5738C46.6075 30.8262 46.6348 30.7987 46.6348 30.7648V29.814C46.6348 29.7801 46.6075 29.7526 46.5738 29.7526Z" fill="#3181C2"/>
<path d="M45.6866 30.239H45.2255C45.1918 30.239 45.1646 30.2665 45.1646 30.3004V30.7648C45.1646 30.7987 45.1918 30.8262 45.2255 30.8262H45.6866C45.7203 30.8262 45.7475 30.7987 45.7475 30.7648V30.3004C45.7475 30.2665 45.7203 30.239 45.6866 30.239Z" fill="#3181C2"/>
<path d="M47.4527 29.4064H46.9916C46.9579 29.4064 46.9307 29.4339 46.9307 29.4678V30.7648C46.9307 30.7987 46.9579 30.8261 46.9916 30.8261H47.4527C47.4864 30.8261 47.5137 30.7987 47.5137 30.7648V29.4678C47.5137 29.4339 47.4864 29.4064 47.4527 29.4064Z" fill="#3181C2"/>
<path d="M48.336 28.8631H47.8749C47.8412 28.8631 47.814 28.8906 47.814 28.9244V30.7648C47.814 30.7987 47.8412 30.8262 47.8749 30.8262H48.336C48.3697 30.8262 48.397 30.7987 48.397 30.7648V28.9244C48.397 28.8906 48.3697 28.8631 48.336 28.8631Z" fill="#3181C2"/>
<path d="M53.4525 28.8281H50.3157C50.3043 28.8286 50.293 28.8315 50.2827 28.8364C50.2724 28.8413 50.2631 28.8483 50.2554 28.8568C50.2477 28.8653 50.2418 28.8753 50.238 28.8862C50.2341 28.8971 50.2324 28.9086 50.233 28.9201V30.6202C50.2324 30.6317 50.2341 30.6433 50.238 30.6541C50.2418 30.665 50.2477 30.675 50.2554 30.6835C50.2631 30.6921 50.2724 30.699 50.2827 30.7039C50.293 30.7089 50.3043 30.7117 50.3157 30.7122H53.4525C53.4638 30.7117 53.4748 30.7089 53.4849 30.7039C53.4951 30.6989 53.5041 30.6919 53.5114 30.6833C53.5187 30.6746 53.5243 30.6646 53.5276 30.6538C53.5309 30.6429 53.532 30.6315 53.5308 30.6202V28.9201C53.532 28.9088 53.5309 28.8974 53.5276 28.8865C53.5243 28.8757 53.5187 28.8657 53.5114 28.857C53.5041 28.8484 53.4951 28.8414 53.4849 28.8364C53.4748 28.8314 53.4638 28.8286 53.4525 28.8281V28.8281ZM53.3699 30.5326H50.394V29.0077H53.3699V30.5326Z" fill="#3181C2"/>
<path d="M53.6829 29.4064H53.4958C53.4814 29.4064 53.4697 29.4182 53.4697 29.4327V30.1119C53.4697 30.1264 53.4814 30.1382 53.4958 30.1382H53.6829C53.6973 30.1382 53.709 30.1264 53.709 30.1119V29.4327C53.709 29.4182 53.6973 29.4064 53.6829 29.4064Z" fill="#3181C2"/>
<path d="M52.591 29.183H50.5723V30.3573H52.591V29.183Z" fill="#3181C2"/>
<path d="M53.0786 75.4551C53.0786 75.4551 54.8928 70.7753 58.1036 71.1609C61.3144 71.5465 62.1672 75.2228 62.3455 77.5102C62.637 81.2216 62.5761 85.9978 62.1149 88.0265C61.6538 90.0553 58.9694 91.3611 56.359 90.8309C55.9066 90.772 55.4731 90.6115 55.0906 90.3612C54.708 90.1109 54.3862 89.7773 54.1488 89.3849C52.7001 86.6331 51.2295 83.5176 51.5689 80.4241C51.7269 78.6807 52.2409 76.989 53.0786 75.4551V75.4551Z" fill="#72B7F6"/>
<path d="M13.5525 74.9643C13.4303 74.7891 13.317 74.6078 13.2132 74.421C12.5345 73.2028 9.57164 68.4529 5.1383 69.062C0.0610463 69.7587 0.0784489 74.9687 0.000136569 78.1192C-0.0390196 79.8413 0.252476 84.9154 0.522219 89.1789C0.822416 93.8324 5.30797 97.1188 9.75872 95.7911C10.9378 95.4362 11.9341 94.8403 12.4605 93.8763C14.6054 90.029 16.759 85.6779 16.0411 81.445C15.6721 79.1329 14.8242 76.9248 13.5525 74.9643V74.9643Z" fill="#72B7F6"/>
<path d="M0.0610352 76.3095C0.0610352 76.3095 0.435194 89.4331 5.13828 93.1883C11.1379 97.9776 13.4046 92.1148 13.4046 92.1148C13.0245 93.4176 12.1822 94.5342 11.0378 95.2522C9.76741 96.019 7.74434 96.3432 5.25575 95.6421C1.89267 94.5029 1.03994 92.5486 0.613572 89.6478C0.22201 86.8829 0.0610352 76.3095 0.0610352 76.3095Z" fill="#489AE8"/>
<path d="M62.4107 77.0325C62.4107 77.0325 61.7581 87.8513 59.5653 89.1088C57.3726 90.3664 53.7876 88.7057 53.7876 88.7057C53.7876 88.7057 54.6969 91.7029 58.8518 90.7915C63.0067 89.88 62.6978 86.4403 62.837 84.692C62.9762 82.9436 62.4107 77.0325 62.4107 77.0325Z" fill="#489AE8"/>
<path d="M45.7039 63.1246C45.9429 63.2212 46.1571 63.371 46.3304 63.5628C46.5003 63.773 46.5912 64.0367 46.5871 64.3077C46.5871 66.1043 46.5871 67.9008 46.5871 69.6974C46.599 69.8581 46.5781 70.0196 46.5258 70.1719C46.4735 70.3243 46.3908 70.4642 46.2828 70.5832C46.1749 70.7022 46.0439 70.7977 45.898 70.8639C45.752 70.9301 45.5942 70.9656 45.4342 70.9681C45.2737 70.9659 45.1152 70.9312 44.9683 70.8661C44.8213 70.801 44.6889 70.7067 44.5789 70.589C44.4689 70.4712 44.3835 70.3324 44.3279 70.1807C44.2723 70.029 44.2476 69.8676 44.2552 69.7061C44.2552 68.3916 44.2552 67.0551 44.2552 65.7274C44.2552 65.4952 44.1986 65.4163 43.955 65.4207C43.0848 65.4207 42.1886 65.4207 41.3054 65.4207C40.8703 65.4207 40.4353 65.4645 40.0002 65.4558C39.7933 65.4612 39.5886 65.4118 39.4065 65.3126C39.2244 65.2134 39.0714 65.0679 38.9626 64.8905C38.8539 64.7131 38.7932 64.5101 38.7867 64.3017C38.7802 64.0934 38.8281 63.8869 38.9256 63.703C39.0974 63.4299 39.3568 63.2242 39.6608 63.1202L45.7039 63.1246Z" fill="#3181C2"/>
<path d="M19.9868 82.9524C20.0628 82.7026 20.2152 82.4834 20.4223 82.326C20.6293 82.1686 20.8804 82.0811 21.1397 82.076C21.4361 82.077 21.7204 82.1943 21.9324 82.4029C22.1444 82.6114 22.2674 82.895 22.2753 83.1934C22.2753 84.5649 22.2753 85.932 22.2753 87.2991C22.2753 87.5533 22.3492 87.6234 22.5972 87.6234C23.9329 87.6234 25.2642 87.6234 26.5955 87.6234C26.9001 87.6234 27.1923 87.7453 27.4077 87.9622C27.6231 88.1791 27.7441 88.4734 27.7441 88.7802C27.7441 89.087 27.6231 89.3812 27.4077 89.5982C27.1923 89.8151 26.9001 89.937 26.5955 89.937C24.8552 89.937 23.1498 89.937 21.4312 89.937C21.1251 89.9817 20.8132 89.9156 20.5511 89.7502C20.2889 89.5849 20.0936 89.3312 19.9999 89.0343L19.9868 82.9524Z" fill="#3181C2"/>
<path d="M26.8438 63.1246C27.0664 63.1811 27.2688 63.2993 27.428 63.4659C27.5872 63.6324 27.6968 63.8406 27.7444 64.0667C27.7775 64.2289 27.7749 64.3964 27.7369 64.5575C27.6989 64.7185 27.6264 64.8693 27.5244 64.9992C27.4224 65.129 27.2935 65.2348 27.1466 65.3091C26.9997 65.3835 26.8384 65.4246 26.6741 65.4295C25.3254 65.4295 23.9767 65.4295 22.6236 65.4295C22.2799 65.4295 22.2799 65.4295 22.2799 65.7713C22.2799 67.0858 22.2582 68.4004 22.2799 69.7149C22.2977 70.0077 22.2103 70.2971 22.0338 70.5303C21.8573 70.7636 21.6034 70.9252 21.3184 70.9856C21.0395 71.029 20.7544 70.9701 20.5149 70.8198C20.2754 70.6694 20.0974 70.4375 20.0132 70.1662C20.0017 70.1438 19.987 70.1232 19.9697 70.1049V64.0667C20.0247 63.8383 20.1411 63.6296 20.3061 63.4634C20.4711 63.2972 20.6783 63.18 20.9051 63.1246H26.8438Z" fill="#3181C2"/>
<path d="M20.9222 63.1246C20.6954 63.18 20.4882 63.2972 20.3232 63.4634C20.1582 63.6296 20.0418 63.8383 19.9868 64.0667V63.1246H20.9222Z" fill="#FDFDFD"/>
<path d="M40.6354 70.3371C40.6412 70.1953 40.6173 70.054 40.5652 69.9222C40.5131 69.7904 40.4339 69.6712 40.3329 69.5723C40.2318 69.4734 40.1112 69.3972 39.9789 69.3485C39.8466 69.2998 39.7056 69.2798 39.5651 69.2898H27.0743C26.9194 69.2713 26.7623 69.2885 26.6151 69.3402C26.4678 69.3919 26.3341 69.4768 26.2242 69.5883C26.1144 69.6998 26.0312 69.835 25.9809 69.9838C25.9307 70.1325 25.9148 70.2908 25.9344 70.4466V79.6485C26.3723 79.1484 26.8845 78.7198 27.4528 78.3777C28.4965 77.7672 29.708 77.5121 30.9072 77.6504C31.2964 77.6941 31.6808 77.7733 32.0558 77.887C32.9764 78.2 33.8059 78.7374 34.4704 79.4513C34.5314 79.5214 34.5836 79.6003 34.6445 79.6748C35.1211 79.4595 35.6181 79.2936 36.1281 79.1796C36.9092 79.0336 37.7119 79.0504 38.4864 79.229C39.2609 79.4076 39.9908 79.7442 40.631 80.2181C40.6339 76.9288 40.6354 73.6351 40.6354 70.3371ZM36.9808 75.7749C36.6969 75.775 36.4159 75.7181 36.1542 75.6075C35.8924 75.4969 35.6552 75.3349 35.4563 75.1309C35.2574 74.9269 35.1009 74.6851 34.9958 74.4195C34.8908 74.1539 34.8394 73.8699 34.8446 73.584C34.8486 73.3003 34.908 73.0202 35.0195 72.7597C35.131 72.4991 35.2924 72.2632 35.4944 72.0655C35.6964 71.8677 35.9351 71.712 36.1968 71.6072C36.4586 71.5023 36.7383 71.4504 37.0199 71.4545C37.3016 71.4585 37.5797 71.5183 37.8384 71.6306C38.0971 71.7429 38.3313 71.9054 38.5277 72.1089C38.724 72.3123 38.8787 72.5527 38.9828 72.8163C39.0869 73.08 39.1384 73.3617 39.1344 73.6454C39.1286 74.2152 38.8987 74.7595 38.4949 75.1587C38.0911 75.558 37.5466 75.7796 36.9808 75.7749V75.7749Z" fill="#72B7F6"/>
<path d="M42.6932 89.9151C41.8231 89.9151 40.9529 89.8844 40.0828 89.9151C39.7613 89.9319 39.4462 89.8203 39.2059 89.6046C38.9656 89.3888 38.8195 89.0863 38.7993 88.7627C38.7986 88.5948 38.8328 88.4286 38.8996 88.2748C38.9664 88.121 39.0644 87.9829 39.1873 87.8694C39.3102 87.756 39.4553 87.6696 39.6132 87.616C39.7712 87.5623 39.9385 87.5424 40.1045 87.5577C41.4097 87.5928 42.6801 87.5884 43.9679 87.6015C44.2203 87.6015 44.2855 87.5358 44.2855 87.2816C44.2855 85.9671 44.2855 84.6525 44.2855 83.338C44.2717 83.0788 44.3401 82.8219 44.4809 82.6044C44.6217 82.387 44.8276 82.2203 45.0687 82.1286C45.2399 82.0662 45.4234 82.0456 45.6042 82.0684C45.7849 82.0912 45.9577 82.1568 46.1083 82.2599C46.259 82.3629 46.3833 82.5004 46.4711 82.6611C46.5588 82.8219 46.6075 83.0013 46.6132 83.1846C46.6132 85.0601 46.6132 86.9355 46.6132 88.8065C46.599 89.0974 46.4765 89.3722 46.2701 89.576C46.0636 89.7799 45.7884 89.8979 45.4994 89.9064H42.6932V89.9151Z" fill="#3181C2"/>
<path d="M38.721 79.3111C37.881 79.0641 36.9937 79.028 36.1367 79.2059C35.6268 79.3199 35.1297 79.4858 34.6531 79.7011C34.5922 79.6266 34.54 79.5477 34.4791 79.4776C33.8152 78.7629 32.9855 78.2254 32.0644 77.9133C31.6891 77.8003 31.3048 77.7197 30.9159 77.6723C29.7164 77.5388 28.5059 77.7952 27.4614 78.4041C26.8932 78.7461 26.381 79.1748 25.943 79.6748C25.943 80.7045 25.943 81.7386 25.943 82.7684C25.9386 83.0127 26.0256 83.2499 26.1868 83.4326C26.3481 83.6152 26.5717 83.7301 26.8132 83.7543C27.3048 83.7806 27.8008 83.7543 28.2968 83.7543H31.6685C31.6836 83.5394 31.726 83.3273 31.7947 83.1233C31.726 83.3273 31.6836 83.5394 31.6685 83.7543H39.5433C39.6894 83.7683 39.8368 83.7498 39.975 83.7001C40.1133 83.6504 40.239 83.5706 40.3432 83.4665C40.4474 83.3624 40.5276 83.2364 40.5781 83.0976C40.6285 82.9588 40.6481 82.8105 40.6353 82.6632V80.24C40.0659 79.8036 39.4147 79.4876 38.721 79.3111V79.3111Z" fill="#00C2A4"/>
<path d="M36.9808 75.7749C36.6969 75.775 36.4159 75.718 36.1542 75.6075C35.8924 75.4969 35.6551 75.3349 35.4563 75.1309C35.2574 74.9269 35.1008 74.6851 34.9958 74.4195C34.8908 74.1539 34.8394 73.8698 34.8446 73.584C34.8486 73.3003 34.908 73.0202 35.0195 72.7597C35.131 72.4991 35.2924 72.2632 35.4944 72.0655C35.6964 71.8677 35.935 71.712 36.1968 71.6071C36.4586 71.5023 36.7383 71.4504 37.0199 71.4544C37.3016 71.4585 37.5797 71.5183 37.8384 71.6306C38.0971 71.7429 38.3313 71.9054 38.5277 72.1088C38.724 72.3123 38.8787 72.5527 38.9828 72.8163C39.0869 73.08 39.1384 73.3617 39.1344 73.6454C39.1286 74.2152 38.8986 74.7595 38.4949 75.1587C38.0911 75.558 37.5466 75.7796 36.9808 75.7749V75.7749Z" fill="#FFC400"/>
<path d="M119.831 34.1256C122.48 33.5385 117.917 38.6083 113.305 41.6142C113.19 41.6889 113.053 41.7209 112.917 41.7047C112.781 41.6885 112.655 41.6251 112.561 41.5254C112.467 41.4257 112.41 41.296 112.4 41.1586C112.391 41.0213 112.429 40.8848 112.509 40.7729C114.423 38.1219 117.738 33.9854 119.831 34.1256Z" fill="#FFBD00"/>
<path d="M111.43 34.0337C111.546 33.8966 111.702 33.799 111.875 33.7542C112.048 33.7094 112.231 33.7196 112.399 33.7833C112.566 33.847 112.71 33.9612 112.811 34.1103C112.911 34.2594 112.964 34.4362 112.961 34.6164C113.009 36.1238 110.873 40.8868 110.42 39.0859C110.42 39.064 110.429 35.1554 111.43 34.0337Z" fill="#FFBD00"/>
<path d="M121.985 41.1892C122.968 41.3075 122.981 42.4117 122.006 42.8806C120.083 43.8008 112.9 44.6859 115.002 43.2311C115.002 43.2486 120.049 40.9789 121.985 41.1892Z" fill="#FFBD00"/>
<path d="M15.1795 36.9038C15.1235 36.1043 14.8011 35.3472 14.2645 34.7553C13.728 34.1634 13.0087 33.7712 12.2233 33.6424C11.4378 33.5136 10.6322 33.6557 9.93689 34.0456C9.24161 34.4355 8.69741 35.0505 8.39246 35.7908C8.12554 35.3381 7.76222 34.9508 7.32869 34.6567C6.89517 34.3626 6.40224 34.169 5.88546 34.09C5.36868 34.0109 4.84093 34.0484 4.34025 34.1996C3.83957 34.3508 3.37845 34.612 2.99014 34.9644C2.60183 35.3169 2.296 35.7517 2.09471 36.2375C1.89342 36.7234 1.80169 37.2481 1.82613 37.774C1.85057 38.2999 1.99056 38.8137 2.23603 39.2785C2.48149 39.7433 2.8263 40.1475 3.2456 40.4618V40.4618L9.04941 45.1328L14.205 39.6205C14.5481 39.2623 14.8123 38.8351 14.9802 38.3669C15.1482 37.8988 15.2161 37.4002 15.1795 36.9038V36.9038Z" fill="#FF5159"/>
<path d="M8.07904 24.7836C7.77223 24.3404 7.326 24.0144 6.81247 23.8582C6.29894 23.7021 5.74812 23.7249 5.24906 23.923C4.75 24.1211 4.33186 24.483 4.06223 24.95C3.7926 25.4171 3.68723 25.9621 3.76316 26.4969C3.45342 26.3245 3.10946 26.2238 2.75625 26.202C2.40304 26.1801 2.04944 26.2378 1.7211 26.3707C1.39275 26.5036 1.09791 26.7085 0.857946 26.9704C0.617985 27.2324 0.438931 27.5448 0.333774 27.8851C0.228616 28.2255 0.199994 28.5851 0.249982 28.9379C0.29997 29.2907 0.427315 29.6279 0.622779 29.925C0.818242 30.2221 1.07692 30.4717 1.38005 30.6556C1.68317 30.8395 2.02315 30.9531 2.3753 30.9883V30.9883L7.33073 31.6674L8.4445 26.6941V26.6634C8.51624 26.3417 8.5208 26.0084 8.45789 25.6848C8.39498 25.3612 8.26597 25.0543 8.07904 24.7836Z" fill="#FF5159"/>
<path d="M15.9322 22.8863C15.9785 22.5476 15.9103 22.2031 15.7383 21.9084C15.5664 21.6136 15.3009 21.3858 14.9846 21.2617C14.6683 21.1376 14.3197 21.1245 13.9951 21.2245C13.6705 21.3245 13.3889 21.5317 13.1956 21.8127C13.1255 21.5983 13.0088 21.4022 12.854 21.2388C12.6992 21.0754 12.5103 20.9488 12.3008 20.8681C12.0914 20.7875 11.8668 20.7548 11.6432 20.7725C11.4197 20.7902 11.2029 20.8579 11.0086 20.9705C10.8142 21.0832 10.6473 21.238 10.5198 21.4237C10.3923 21.6095 10.3075 21.8216 10.2715 22.0445C10.2355 22.2674 10.2493 22.4955 10.3119 22.7124C10.3744 22.9293 10.4841 23.1294 10.633 23.2982V23.2982L12.643 25.7652L15.2839 23.9336C15.4583 23.8139 15.606 23.659 15.7176 23.4787C15.8292 23.2984 15.9023 23.0966 15.9322 22.8863Z" fill="#FF5159"/>
</g>
<defs>
<clipPath id="clip0_214_2459">
<rect width="139" height="144" fill="white"/>
</clipPath>
</defs>
</svg>
